<svg xmlns="http://www.w3.org/2000/svg" width="14" height="16" viewBox="0 0 14 16" fill="none">
  <path d="M4 0.5C4 0.225 3.775 0 3.5 0C3.225 0 3 0.225 3 0.5V2H2C0.896875 2 0 2.89687 0 4V5V6V14C0 15.1031 0.896875 16 2 16H12C13.1031 16 14 15.1031 14 14V6V5V4C14 2.89687 13.1031 2 12 2H11V0.5C11 0.225 10.775 0 10.5 0C10.225 0 10 0.225 10 0.5V2H4V0.5ZM1 6H13V14C13 14.5531 12.5531 15 12 15H2C1.44687 15 1 14.5531 1 14V6ZM2 3H12C12.5531 3 13 3.44688 13 4V5H1V4C1 3.44688 1.44687 3 2 3ZM10.3531 8.85312C10.5469 8.65937 10.5469 8.34063 10.3531 8.14688C10.1594 7.95313 9.84063 7.95313 9.64688 8.14688L6.5 11.2937L4.85313 9.64688C4.65938 9.45312 4.34062 9.45312 4.14687 9.64688C3.95312 9.84063 3.95312 10.1594 4.14687 10.3531L6.14687 12.3531C6.34062 12.5469 6.65938 12.5469 6.85313 12.3531L10.3531 8.85312Z" fill="#7C2C89"/>
</svg>