<svg xmlns="http://www.w3.org/2000/svg" width="14" height="16" viewBox="0 0 14 16" fill="none">
  <path d="M3.5 0C3.775 0 4 0.225 4 0.5V2H10V0.5C10 0.225 10.225 0 10.5 0C10.775 0 11 0.225 11 0.5V2H12C13.1031 2 14 2.89687 14 4V5V6V14C14 15.1031 13.1031 16 12 16H2C0.896875 16 0 15.1031 0 14V6V5V4C0 2.89687 0.896875 2 2 2H3V0.5C3 0.225 3.225 0 3.5 0ZM13 6H9.75V8.25H13V6ZM13 9.25H9.75V11.75H13V9.25ZM13 12.75H9.75V15H12C12.5531 15 13 14.5531 13 14V12.75ZM8.75 11.75V9.25H5.25V11.75H8.75ZM5.25 12.75V15H8.75V12.75H5.25ZM4.25 11.75V9.25H1V11.75H4.25ZM1 12.75V14C1 14.5531 1.44687 15 2 15H4.25V12.75H1ZM1 8.25H4.25V6H1V8.25ZM5.25 8.25H8.75V6H5.25V8.25ZM12 3H2C1.44687 3 1 3.44688 1 4V5H13V4C13 3.44688 12.5531 3 12 3Z" fill="#1E1E1E"/>
</svg>