<svg xmlns="http://www.w3.org/2000/svg" width="24" height="25" viewBox="0 0 24 25" fill="none">
  <path d="M11.9984 4.10002C14.2263 4.10002 16.3628 4.98502 17.9381 6.56033C19.5134 8.13563 20.3984 10.2722 20.3984 12.5C20.3984 14.7278 19.5134 16.8644 17.9381 18.4397C16.3628 20.015 14.2263 20.9 11.9984 20.9C9.77062 20.9 7.63405 20.015 6.05874 18.4397C4.48343 16.8644 3.59844 14.7278 3.59844 12.5C3.59844 10.2722 4.48343 8.13563 6.05874 6.56033C7.63405 4.98502 9.77062 4.10002 11.9984 4.10002ZM11.9984 22.1C14.5445 22.1 16.9863 21.0886 18.7867 19.2882C20.587 17.4879 21.5984 15.0461 21.5984 12.5C21.5984 9.95395 20.587 7.51215 18.7867 5.7118C16.9863 3.91145 14.5445 2.90002 11.9984 2.90002C9.45236 2.90002 7.01056 3.91145 5.21021 5.7118C3.40986 7.51215 2.39844 9.95395 2.39844 12.5C2.39844 15.0461 3.40986 17.4879 5.21021 19.2882C7.01056 21.0886 9.45236 22.1 11.9984 22.1Z" fill="#1E1E1E"/>
</svg>