<svg xmlns="http://www.w3.org/2000/svg" width="16" height="17" viewBox="0 0 16 17" fill="none">
  <g clip-path="url(#clip0_700_11858)">
    <path d="M2 15.5H9C9.55313 15.5 10 15.0531 10 14.5V12.5H11V14.5C11 15.6031 10.1031 16.5 9 16.5H2C0.896875 16.5 0 15.6031 0 14.5V7.5C0 6.39687 0.896875 5.5 2 5.5H4V6.5H2C1.44687 6.5 1 6.94688 1 7.5V14.5C1 15.0531 1.44687 15.5 2 15.5ZM7 10.5H14C14.5531 10.5 15 10.0531 15 9.5V2.5C15 1.94687 14.5531 1.5 14 1.5H7C6.44688 1.5 6 1.94687 6 2.5V9.5C6 10.0531 6.44688 10.5 7 10.5ZM5 9.5V2.5C5 1.39688 5.89687 0.5 7 0.5H14C15.1031 0.5 16 1.39688 16 2.5V9.5C16 10.6031 15.1031 11.5 14 11.5H7C5.89687 11.5 5 10.6031 5 9.5Z" fill="#1F1F1F"/>
  </g>
  <defs>
    <clipPath id="clip0_700_11858">
      <rect width="16" height="16" fill="white" transform="translate(0 0.5)"/>
    </clipPath>
  </defs>
</svg>