<svg xmlns="http://www.w3.org/2000/svg" width="16" height="14" viewBox="0 0 16 14" fill="none">
  <path d="M2 1C1.44687 1 1 1.44687 1 2V9.29375L3.11562 7.17813C3.60312 6.69063 4.39375 6.69063 4.88438 7.17813L7 9.29375L11.1156 5.17812C11.6031 4.69062 12.3937 4.69062 12.8844 5.17812L15 7.29375V2C15 1.44687 14.5531 1 14 1H2ZM1 10.7063V12C1 12.5531 1.44687 13 2 13H3.29375L6.29375 10L4.17812 7.88437C4.08125 7.7875 3.92188 7.7875 3.825 7.88437L1 10.7063ZM12.1781 5.88438C12.0813 5.7875 11.9219 5.7875 11.825 5.88438L4.70625 13H14C14.5531 13 15 12.5531 15 12V8.70625L12.1781 5.88438ZM0 2C0 0.896875 0.896875 0 2 0H14C15.1031 0 16 0.896875 16 2V12C16 13.1031 15.1031 14 14 14H2C0.896875 14 0 13.1031 0 12V2ZM5 3.5C5 3.36739 4.94732 3.24021 4.85355 3.14645C4.75979 3.05268 4.63261 3 4.5 3C4.36739 3 4.24021 3.05268 4.14645 3.14645C4.05268 3.24021 4 3.36739 4 3.5C4 3.63261 4.05268 3.75979 4.14645 3.85355C4.24021 3.94732 4.36739 4 4.5 4C4.63261 4 4.75979 3.94732 4.85355 3.85355C4.94732 3.75979 5 3.63261 5 3.5ZM3 3.5C3 3.10218 3.15804 2.72064 3.43934 2.43934C3.72064 2.15804 4.10218 2 4.5 2C4.89782 2 5.27936 2.15804 5.56066 2.43934C5.84196 2.72064 6 3.10218 6 3.5C6 3.89782 5.84196 4.27936 5.56066 4.56066C5.27936 4.84196 4.89782 5 4.5 5C4.10218 5 3.72064 4.84196 3.43934 4.56066C3.15804 4.27936 3 3.89782 3 3.5Z" fill="#222222"/>
</svg>