<svg xmlns="http://www.w3.org/2000/svg" width="16" height="14" viewBox="0 0 16 14" fill="none">
  <path d="M0.16609 6.59638C-0.0553633 6.81783 -0.0553633 7.18216 0.16609 7.40361L4.73803 11.9756C4.95948 12.197 5.32381 12.197 5.54526 11.9756C5.76671 11.7541 5.76671 11.3898 5.54526 11.1683L1.94843 7.57149H5.71314H11.9996C12.3139 7.57149 12.571 7.31432 12.571 7C12.571 6.68568 12.3139 6.42851 11.9996 6.42851H5.71314H1.94843L5.54526 2.83168C5.76671 2.61022 5.76671 2.2459 5.54526 2.02444C5.32381 1.80299 4.95948 1.80299 4.73803 2.02444L0.16609 6.59638ZM14.857 13.2864C14.857 13.6007 15.1142 13.8579 15.4285 13.8579C15.7428 13.8579 16 13.6007 16 13.2864V0.713582C16 0.399261 15.7428 0.14209 15.4285 0.14209C15.1142 0.14209 14.857 0.399261 14.857 0.713582V13.2864Z" fill="black"/>
</svg>