<svg width="20" height="20" viewBox="0 0 20 20" fill="none" xmlns="http://www.w3.org/2000/svg">
<path d="M8.97949 3.18125C8.99199 3.13437 9.02011 3.09375 9.05449 3.0625C9.36386 3.02188 9.67949 3 10.0014 3C10.3232 3 10.6389 3.02188 10.9482 3.0625C10.9826 3.09375 11.0076 3.13437 11.0232 3.18125L11.4514 4.67188C11.5607 5.05 11.8326 5.33125 12.1545 5.4875C12.392 5.6 12.617 5.73125 12.8326 5.87812C13.1264 6.08125 13.5107 6.175 13.892 6.08125L15.3982 5.70625C15.4451 5.69375 15.492 5.69688 15.5357 5.7125C15.7045 5.92813 15.8607 6.15625 16.0014 6.39375L16.1357 6.625C16.267 6.85938 16.3826 7.10313 16.4857 7.35313C16.4764 7.4 16.4545 7.44375 16.4201 7.47813L15.3389 8.59375C15.067 8.875 14.9576 9.25313 14.9857 9.60938C14.9951 9.7375 15.0014 9.86875 15.0014 10C15.0014 10.1313 14.9951 10.2625 14.9857 10.3906C14.9576 10.7469 15.067 11.125 15.3389 11.4062L16.417 12.5219C16.4514 12.5563 16.4732 12.6 16.4826 12.6469C16.3795 12.8969 16.2639 13.1406 16.1326 13.3781L16.0014 13.6062C15.8576 13.8438 15.7014 14.0688 15.5357 14.2875C15.492 14.3031 15.4451 14.3031 15.3982 14.2937L13.892 13.9187C13.5107 13.825 13.1295 13.9187 12.8326 14.1219C12.617 14.2688 12.392 14.4 12.1545 14.5125C11.8326 14.6656 11.5576 14.95 11.4514 15.3281L11.0232 16.8188C11.0107 16.8656 10.9826 16.9062 10.9482 16.9375C10.6389 16.9781 10.3232 17 10.0014 17C9.67949 17 9.36386 16.9781 9.05449 16.9375C9.02011 16.9062 8.99511 16.8656 8.97949 16.8188L8.55136 15.3281C8.44199 14.95 8.17011 14.6687 7.84824 14.5125C7.61074 14.4 7.38574 14.2688 7.17011 14.1219C6.87636 13.9187 6.49199 13.825 6.11074 13.9187L4.60449 14.2937C4.55761 14.3062 4.51074 14.3031 4.46699 14.2875C4.29824 14.0688 4.14199 13.8438 3.99824 13.6062L3.86699 13.3781C3.73574 13.1438 3.62011 12.9 3.51699 12.6469C3.52636 12.6 3.54824 12.5563 3.58261 12.5219L4.66386 11.4062C4.93574 11.125 5.04511 10.7469 5.01699 10.3906C5.00761 10.2625 5.00136 10.1313 5.00136 10C5.00136 9.86875 5.00761 9.7375 5.01699 9.60938C5.04511 9.25313 4.93574 8.875 4.66386 8.59375L3.58574 7.475C3.55136 7.44062 3.52949 7.39687 3.52011 7.35C3.62324 7.1 3.73886 6.85625 3.87011 6.61875L4.00136 6.39062C4.14511 6.15312 4.30136 5.92812 4.47011 5.70937C4.51386 5.69375 4.56074 5.69375 4.60761 5.70312L6.11386 6.07812C6.49511 6.17188 6.87636 6.07812 7.17324 5.875C7.38886 5.72813 7.61386 5.59687 7.85136 5.48438C8.17324 5.33125 8.44824 5.04688 8.55449 4.66875L8.98261 3.17813L8.97949 3.18125ZM10.0014 2C9.59511 2 9.19199 2.03125 8.80136 2.09063C8.74824 2.1 8.69511 2.11563 8.64511 2.14062C8.34824 2.29375 8.11699 2.56563 8.02011 2.90625L7.59199 4.39687C7.57324 4.46562 7.51386 4.5375 7.41699 4.58437C7.13261 4.71875 6.86074 4.87812 6.60449 5.05312C6.51699 5.1125 6.42324 5.12812 6.35449 5.10938L4.84824 4.73438C4.50761 4.65 4.15761 4.71563 3.87636 4.89375C3.82949 4.92188 3.78886 4.95937 3.75449 5.00312C3.53261 5.28125 3.32636 5.57187 3.14199 5.87812L3.13886 5.8875L3.00136 6.125L2.99824 6.13438C2.82949 6.44063 2.67949 6.75625 2.55136 7.08437C2.53261 7.13438 2.52011 7.1875 2.51699 7.24062C2.50136 7.57812 2.62011 7.91563 2.86699 8.17188L3.94511 9.2875C3.99511 9.34062 4.02949 9.425 4.02011 9.53125C4.00761 9.6875 4.00136 9.84375 4.00136 10C4.00136 10.1562 4.00761 10.3156 4.02011 10.4688C4.02949 10.575 3.99511 10.6625 3.94511 10.7125L2.86699 11.8313C2.62011 12.0875 2.50136 12.425 2.51699 12.7625C2.52011 12.8156 2.53261 12.8687 2.55136 12.9187C2.67949 13.2469 2.82949 13.5625 2.99824 13.8687L3.00136 13.8781L3.13886 14.1156L3.14199 14.125C3.32636 14.4312 3.52949 14.725 3.75449 15.0031C3.78886 15.0469 3.82949 15.0844 3.87636 15.1125C4.15761 15.2906 4.50761 15.3563 4.84824 15.2719L6.35449 14.8969C6.42324 14.8781 6.51699 14.8938 6.60449 14.9531C6.86074 15.1313 7.13261 15.2875 7.41699 15.4219C7.51386 15.4688 7.57011 15.5406 7.59199 15.6094L8.02011 17.0938C8.11699 17.4312 8.34824 17.7031 8.64511 17.8594C8.69511 17.8844 8.74511 17.9031 8.80136 17.9094C9.19199 17.9688 9.59511 18 10.0014 18C10.4076 18 10.8107 17.9688 11.2014 17.9094C11.2545 17.9 11.3076 17.8844 11.3576 17.8594C11.6545 17.7063 11.8857 17.4344 11.9826 17.0938L12.4107 15.6031C12.4295 15.5344 12.4889 15.4625 12.5857 15.4156C12.8701 15.2812 13.142 15.1219 13.3982 14.9469C13.4857 14.8875 13.5795 14.8719 13.6482 14.8906L15.1545 15.2656C15.4951 15.35 15.8451 15.2875 16.1264 15.1062C16.1732 15.0781 16.2139 15.0406 16.2482 14.9969C16.4701 14.7188 16.6732 14.4281 16.8576 14.1219L16.8607 14.1125L17.0014 13.875L17.0045 13.8656C17.1732 13.5625 17.3232 13.2437 17.4514 12.9156C17.4701 12.8656 17.4826 12.8125 17.4857 12.7594C17.5014 12.4219 17.3826 12.0844 17.1357 11.8281L16.0576 10.7125C16.0076 10.6594 15.9732 10.575 15.9826 10.4688C15.9951 10.3125 16.0014 10.1562 16.0014 10C16.0014 9.84375 15.9951 9.68437 15.9826 9.53125C15.9732 9.425 16.0076 9.3375 16.0576 9.2875L17.1357 8.17188C17.3826 7.91563 17.5014 7.57812 17.4857 7.24062C17.4826 7.1875 17.4701 7.13438 17.4514 7.08437C17.3232 6.75625 17.1732 6.44063 17.0045 6.13438L17.0014 6.125L16.8639 5.8875L16.8607 5.87812C16.6764 5.57187 16.4732 5.27813 16.2514 5.00312C16.217 4.95937 16.1764 4.92188 16.1295 4.89375C15.8482 4.71563 15.4982 4.65 15.1576 4.73438L13.6514 5.10938C13.5826 5.12812 13.4889 5.1125 13.4014 5.05312C13.1451 4.875 12.8732 4.71875 12.5889 4.58437C12.492 4.5375 12.4357 4.46562 12.4139 4.39687L11.9826 2.90625C11.8857 2.56875 11.6545 2.29688 11.3576 2.14062C11.3076 2.11563 11.2576 2.09688 11.2014 2.09063C10.8107 2.03125 10.4076 2 10.0014 2ZM8.25136 10C8.25136 9.53587 8.43574 9.09075 8.76393 8.76256C9.09212 8.43437 9.53723 8.25 10.0014 8.25C10.4655 8.25 10.9106 8.43437 11.2388 8.76256C11.567 9.09075 11.7514 9.53587 11.7514 10C11.7514 10.4641 11.567 10.9092 11.2388 11.2374C10.9106 11.5656 10.4655 11.75 10.0014 11.75C9.53723 11.75 9.09212 11.5656 8.76393 11.2374C8.43574 10.9092 8.25136 10.4641 8.25136 10ZM12.7514 10C12.7514 9.27065 12.4616 8.57118 11.9459 8.05546C11.4302 7.53973 10.7307 7.25 10.0014 7.25C9.27202 7.25 8.57255 7.53973 8.05682 8.05546C7.54109 8.57118 7.25136 9.27065 7.25136 10C7.25136 10.7293 7.54109 11.4288 8.05682 11.9445C8.57255 12.4603 9.27202 12.75 10.0014 12.75C10.7307 12.75 11.4302 12.4603 11.9459 11.9445C12.4616 11.4288 12.7514 10.7293 12.7514 10Z" fill="black"/>
</svg>
