<svg xmlns="http://www.w3.org/2000/svg" width="14" height="16" viewBox="0 0 14 16" fill="none">
  <path d="M10 4C10 3.60603 9.9224 3.21593 9.77164 2.85195C9.62087 2.48797 9.3999 2.15726 9.12132 1.87868C8.84274 1.6001 8.51203 1.37913 8.14805 1.22836C7.78407 1.0776 7.39397 1 7 1C6.60603 1 6.21593 1.0776 5.85195 1.22836C5.48797 1.37913 5.15726 1.6001 4.87868 1.87868C4.6001 2.15726 4.37913 2.48797 4.22836 2.85195C4.0776 3.21593 4 3.60603 4 4C4 4.39397 4.0776 4.78407 4.22836 5.14805C4.37913 5.51203 4.6001 5.84274 4.87868 6.12132C5.15726 6.3999 5.48797 6.62087 5.85195 6.77164C6.21593 6.9224 6.60603 7 7 7C7.39397 7 7.78407 6.9224 8.14805 6.77164C8.51203 6.62087 8.84274 6.3999 9.12132 6.12132C9.3999 5.84274 9.62087 5.51203 9.77164 5.14805C9.9224 4.78407 10 4.39397 10 4ZM3 4C3 2.93913 3.42143 1.92172 4.17157 1.17157C4.92172 0.421427 5.93913 0 7 0C8.06087 0 9.07828 0.421427 9.82843 1.17157C10.5786 1.92172 11 2.93913 11 4C11 5.06087 10.5786 6.07828 9.82843 6.82843C9.07828 7.57857 8.06087 8 7 8C5.93913 8 4.92172 7.57857 4.17157 6.82843C3.42143 6.07828 3 5.06087 3 4ZM1 15H13C12.9625 12.5094 10.9313 10.5 8.42813 10.5H5.57188C3.07188 10.5 1.04062 12.5094 1 15ZM0 15.0719C0 11.9937 2.49375 9.5 5.57188 9.5H8.42813C11.5063 9.5 14 11.9937 14 15.0719C14 15.5844 13.5844 16 13.0719 16H0.928125C0.415625 16 0 15.5844 0 15.0719Z" fill="black"/>
</svg>