<svg xmlns="http://www.w3.org/2000/svg" width="16" height="16" viewBox="0 0 16 16" fill="none">
  <path d="M4.96552 1.10345H1.65517C1.35172 1.10345 1.10345 1.35172 1.10345 1.65517V4.96552C1.10345 5.26897 1.35172 5.51724 1.65517 5.51724H4.96552C5.26897 5.51724 5.51724 5.26897 5.51724 4.96552V1.65517C5.51724 1.35172 5.26897 1.10345 4.96552 1.10345ZM1.65517 0H4.96552C5.87931 0 6.62069 0.741379 6.62069 1.65517V4.96552C6.62069 5.87931 5.87931 6.62069 4.96552 6.62069H1.65517C0.741379 6.62069 0 5.87931 0 4.96552V1.65517C0 0.741379 0.741379 0 1.65517 0ZM4.96552 9.93103H1.65517C1.35172 9.93103 1.10345 10.1793 1.10345 10.4828V13.7931C1.10345 14.0966 1.35172 14.3448 1.65517 14.3448H4.96552C5.26897 14.3448 5.51724 14.0966 5.51724 13.7931V10.4828C5.51724 10.1793 5.26897 9.93103 4.96552 9.93103ZM1.65517 8.82759H4.96552C5.87931 8.82759 6.62069 9.56897 6.62069 10.4828V13.7931C6.62069 14.7069 5.87931 15.4483 4.96552 15.4483H1.65517C0.741379 15.4483 0 14.7069 0 13.7931V10.4828C0 9.56897 0.741379 8.82759 1.65517 8.82759ZM10.4828 1.10345C10.1793 1.10345 9.93103 1.35172 9.93103 1.65517V4.96552C9.93103 5.26897 10.1793 5.51724 10.4828 5.51724H13.7931C14.0966 5.51724 14.3448 5.26897 14.3448 4.96552V1.65517C14.3448 1.35172 14.0966 1.10345 13.7931 1.10345H10.4828ZM8.82759 1.65517C8.82759 0.741379 9.56897 0 10.4828 0H13.7931C14.7069 0 15.4483 0.741379 15.4483 1.65517V4.96552C15.4483 5.87931 14.7069 6.62069 13.7931 6.62069H10.4828C9.56897 6.62069 8.82759 5.87931 8.82759 4.96552V1.65517ZM12.1379 8.27586C12.4414 8.27586 12.6897 8.52414 12.6897 8.82759V11.5862H15.4483C15.7517 11.5862 16 11.8345 16 12.1379C16 12.4414 15.7517 12.6897 15.4483 12.6897H12.6897V15.4483C12.6897 15.7517 12.4414 16 12.1379 16C11.8345 16 11.5862 15.7517 11.5862 15.4483V12.6897H8.82759C8.52414 12.6897 8.27586 12.4414 8.27586 12.1379C8.27586 11.8345 8.52414 11.5862 8.82759 11.5862H11.5862V8.82759C11.5862 8.52414 11.8345 8.27586 12.1379 8.27586Z" fill="black"/>
</svg>